<svg width="852" height="570" viewBox="0 0 852 570" fill="none" xmlns="http://www.w3.org/2000/svg">
<path d="M207.52 547.87C209.23 547.87 210.72 549.17 209.93 552.45L201.97 554.3C203.35 550.6 205.67 547.87 207.52 547.87ZM211.92 560.69H210.35C208.36 563.05 206.23 564.9 204.1 564.9C201.92 564.9 200.81 563.6 200.81 560.69C200.81 559.49 200.95 558.28 201.18 557.17L214.01 552.96C216.51 547.03 213.5 544.44 209.98 544.44C203.91 544.44 197.01 554.58 197.01 563.47C197.01 567.45 198.91 569.63 201.87 569.63C205.34 569.63 208.95 566.25 211.92 560.69ZM209.37 542.08L218.4 533.65V532.68H213.54L207.98 542.08H209.37ZM181.68 548H185.94L179.18 566.48C178.58 568.05 179.41 569.63 181.03 569.63C184.87 569.63 191.08 565.83 193.26 560.65H192.06C190.35 562.46 187.06 564.86 184.23 565.37L190.44 548H196.78L197.57 545.36H191.41L193.77 538.69H191.32L186.92 545.36L181.69 546.1V548H181.68ZM175.94 547.12C176.45 545.41 175.29 544.43 174.41 544.43C170.71 544.43 166.31 547.76 164.55 552.44H165.75C166.95 550.73 168.99 548.83 170.89 548.5L163.81 566.93C163.16 568.64 164.46 569.62 165.34 569.62C168.86 569.62 172.98 566.24 174.74 561.61H173.54C172.34 563.32 170.3 565.22 168.4 565.55L175.94 547.12ZM177.23 537.86C178.9 537.86 180.29 536.52 180.29 534.8C180.29 533.13 178.9 531.74 177.23 531.74C175.52 531.74 174.17 533.13 174.17 534.8C174.18 536.52 175.52 537.86 177.23 537.86ZM136.44 566.2C135.51 568.28 136.49 569.63 138.52 569.63C139.77 569.63 140.33 569.31 140.84 567.96L145.75 554.95C148.02 552.17 152.7 549.21 154.55 549.21C155.89 549.21 155.71 550.32 154.83 551.99L147.28 566.48C146.54 567.92 147.51 569.63 149.13 569.63C152.83 569.63 157.23 566.3 158.99 561.62H157.79C156.59 563.33 154.55 565.23 152.65 565.56L159.13 552.46C159.96 550.79 160.38 549.22 160.38 547.97C160.38 545.84 159.18 544.45 156.95 544.45C153.75 544.45 150.51 548.06 146.67 552.51V549.08C146.67 546.63 145.88 544.45 143.66 544.45C142.27 544.45 140.93 545.65 139.68 547.37V547.83C142.09 547.69 143.15 551.3 141.44 555.1L136.44 566.2ZM136.35 550.09C137.23 547.08 136.77 544.44 134.45 544.44C131.72 544.44 131.02 546.52 128.24 552.5V549.07C128.24 546.62 127.45 544.44 125.23 544.44C122.64 544.44 120.28 548.47 118.47 552.45H119.67C120.92 550.64 122.08 549.58 123 549.58C124.11 549.58 124.71 551.29 123 555.09L118 566.2C117.07 568.28 118.05 569.63 120.08 569.63C121.33 569.63 121.89 569.31 122.4 567.96L127.31 554.95C128.7 553.24 129.95 551.75 131.52 550.09H136.35ZM107.91 547.87C109.62 547.87 111.11 549.17 110.32 552.45L102.36 554.3C103.75 550.6 106.06 547.87 107.91 547.87ZM112.31 560.69H110.74C108.75 563.05 106.62 564.9 104.49 564.9C102.31 564.9 101.2 563.6 101.2 560.69C101.2 559.49 101.34 558.28 101.57 557.17L114.4 552.96C116.9 547.03 113.89 544.44 110.37 544.44C104.3 544.44 97.4 554.58 97.4 563.47C97.4 567.45 99.3 569.63 102.26 569.63C105.74 569.63 109.35 566.25 112.31 560.69ZM82.08 548H86.34L79.58 566.48C78.98 568.05 79.81 569.63 81.43 569.63C85.27 569.63 91.48 565.83 93.66 560.65H92.46C90.75 562.46 87.46 564.86 84.63 565.37L90.84 548H97.18L97.97 545.36H91.81L94.17 538.69H91.72L87.32 545.36L82.09 546.1V548H82.08ZM58.69 562.41C58.69 556.71 65.03 548.98 68.6 548.98C69.39 548.98 70.13 549.07 70.78 549.26L67.08 559.12C64.95 561.71 61.66 564.86 60.13 564.86C59.25 564.86 58.69 564.12 58.69 562.41ZM78.19 543.37L76.25 543.23L74.07 545.36H73.61C63.05 545.36 53.93 557.21 53.93 565.83C53.93 568.24 55.41 569.63 57.73 569.63C60.46 569.63 63.15 565.74 66.16 561.57L66.02 563.05C65.65 567.31 66.95 569.63 69.17 569.63C71.76 569.63 74.12 565.6 75.93 561.62H74.73C73.48 563.43 72.32 564.49 71.4 564.49C70.43 564.49 69.73 562.73 71.4 558.98L78.19 543.37ZM55.68 550.09C56.56 547.08 56.1 544.44 53.78 544.44C51.05 544.44 50.35 546.52 47.57 552.5V549.07C47.57 546.62 46.78 544.44 44.56 544.44C41.97 544.44 39.61 548.47 37.8 552.45H39C40.25 550.64 41.41 549.58 42.33 549.58C43.44 549.58 44.04 551.29 42.33 555.09L37.33 566.2C36.4 568.28 37.38 569.63 39.41 569.63C40.66 569.63 41.22 569.31 41.73 567.96L46.64 554.95C48.03 553.24 49.28 551.75 50.85 550.09H55.68ZM20.21 568.7L20.67 567.26C14.51 566.1 13.72 566.1 16.18 559.39L18.68 552.49H25.49C28.55 552.49 28.59 553.74 28.13 557.07H29.89L33.97 545.91H32.21C30.68 548.55 29.48 550.49 26.14 550.49H19.43L23 540.72C24.11 537.62 24.76 536.97 28.93 536.97H31.89C36.2 536.97 36.71 538.13 36.71 542.48H38.42L39.86 534.89H14.28L13.82 536.33C18.77 537.35 19.24 537.81 16.92 544.2L11.36 559.39C9.03999 565.73 8.06999 566.24 2.37999 567.26L1.95999 568.7H20.21V568.7Z" fill="black"/>
<path d="M145.52 489.98C147.23 489.98 148.72 491.28 147.93 494.56L139.97 496.41C141.35 492.71 143.66 489.98 145.52 489.98ZM149.91 502.81H148.34C146.35 505.17 144.22 507.02 142.09 507.02C139.91 507.02 138.8 505.72 138.8 502.81C138.8 501.61 138.94 500.4 139.17 499.29L152 495.08C154.5 489.15 151.49 486.56 147.97 486.56C141.9 486.56 135 496.7 135 505.59C135 509.57 136.9 511.75 139.86 511.75C143.34 511.75 146.95 508.37 149.91 502.81ZM147.37 484.19L156.4 475.76V474.79H151.54L145.98 484.19H147.37ZM119.68 490.12H123.94L117.18 508.6C116.58 510.17 117.41 511.75 119.03 511.75C122.87 511.75 129.08 507.95 131.26 502.77H130.06C128.35 504.58 125.06 506.98 122.23 507.49L128.44 490.12H134.78L135.57 487.48H129.41L131.77 480.81H129.32L124.92 487.48L119.69 488.22V490.12H119.68ZM113.93 489.24C114.44 487.53 113.28 486.55 112.4 486.55C108.7 486.55 104.3 489.88 102.54 494.56H103.74C104.94 492.85 106.98 490.95 108.88 490.62L101.8 509.05C101.15 510.76 102.45 511.74 103.33 511.74C106.85 511.74 110.97 508.36 112.73 503.73H111.53C110.33 505.44 108.29 507.34 106.39 507.67L113.93 489.24ZM115.23 479.98C116.9 479.98 118.29 478.64 118.29 476.92C118.29 475.25 116.9 473.86 115.23 473.86C113.52 473.86 112.17 475.25 112.17 476.92C112.18 478.64 113.52 479.98 115.23 479.98ZM90.6 507.67L103.52 473.82L103.1 473.31L95 474.24V475.21L96.57 476.41C98.01 477.52 97.54 478.59 96.25 482.01L86.16 508.59C85.42 510.03 86.39 511.74 88.01 511.74C91.71 511.74 95.65 508.41 97.41 503.73H96.21C95 505.45 92.49 507.35 90.6 507.67ZM66.05 504.52C66.05 498.82 72.39 491.09 75.96 491.09C76.75 491.09 77.49 491.18 78.14 491.37L74.44 501.23C72.31 503.82 69.02 506.97 67.49 506.97C66.61 506.98 66.05 506.24 66.05 504.52ZM85.55 485.49L83.61 485.35L81.43 487.48H80.97C70.41 487.48 61.29 499.33 61.29 507.95C61.29 510.36 62.77 511.75 65.09 511.75C67.82 511.75 70.51 507.86 73.52 503.69L73.38 505.17C73.01 509.43 74.31 511.75 76.53 511.75C79.12 511.75 81.48 507.72 83.29 503.74H82.09C80.84 505.55 79.68 506.61 78.76 506.61C77.79 506.61 77.09 504.85 78.76 501.1L85.55 485.49ZM38.41 516.24C38.41 513.79 40.77 512.26 44.15 510.91C45.26 511.47 46.93 512.07 49.15 512.81C52.67 513.97 54.01 514.43 54.01 515.5C54.01 517.77 50.17 519.48 44.93 519.48C40.54 519.48 38.41 518.55 38.41 516.24ZM47.99 501.28C46.46 501.28 45.86 499.98 45.86 498.5C45.86 494.38 48.08 488.31 51.56 488.31C53.09 488.31 53.69 489.61 53.69 491.09C53.69 495.21 51.47 501.28 47.99 501.28ZM58.04 513.97C58.04 511.01 55.4 509.94 51.09 508.64C47.39 507.53 45.72 507.2 45.72 506C45.72 505.03 46.51 503.87 48.08 503.04C54.15 502.72 58.08 497.25 58.08 492.67C58.08 491.7 57.89 490.86 57.57 490.12H62.71L63.5 487.48H55.35C54.38 486.88 53.22 486.55 52.06 486.55C45.62 486.55 41.46 492.2 41.46 496.78C41.46 500.25 43.68 502.43 46.37 502.94C43.36 504.28 41.69 505.86 41.69 507.71C41.69 508.78 42.06 509.52 42.94 510.21C35.99 512.25 33.26 514.56 33.26 517.85C33.26 521.05 37.47 522.39 42.48 522.39C50.96 522.4 58.04 517.81 58.04 513.97ZM25.67 494.15C28.73 494.15 28.77 495.4 28.31 498.73H30.07L34.15 487.57H32.39C30.86 490.21 29.66 492.15 26.32 492.15H19.61L22.99 482.84C24.1 479.74 24.75 479.14 28.92 479.14H31.88C36.19 479.14 36.7 480.3 36.7 484.6H38.41L39.85 477.01H14.28L13.82 478.45C18.77 479.47 19.24 479.93 16.92 486.32L11.36 501.51C9.03999 507.85 8.06999 508.36 2.37999 509.38L1.95999 510.82H30.39L35.48 502.76H33.54C30.3 505.82 26.22 508.73 20.53 508.73C12.98 508.73 13.68 508.41 16.18 501.51L18.87 494.15H25.67V494.15ZM29.38 474.75L38.41 468.54V467.57H32.95L27.95 474.75H29.38V474.75Z" fill="black"/>
<path d="M142.5 432.1C144.21 432.1 145.7 433.4 144.91 436.68L136.95 438.53C138.34 434.83 140.65 432.1 142.5 432.1ZM146.9 444.92H145.33C143.34 447.28 141.21 449.13 139.08 449.13C136.9 449.13 135.79 447.83 135.79 444.92C135.79 443.72 135.93 442.51 136.16 441.4L148.99 437.19C151.49 431.26 148.48 428.67 144.96 428.67C138.89 428.67 131.99 438.81 131.99 447.7C131.99 451.68 133.89 453.86 136.85 453.86C140.33 453.86 143.94 450.48 146.9 444.92ZM144.36 426.31L153.39 417.88V416.91H148.53L142.97 426.31H144.36V426.31ZM117.82 432.24H121.2L114.44 450.72C113.84 452.29 114.67 453.87 116.29 453.87C120.13 453.87 126.34 450.07 128.52 444.89H127.32C125.61 446.7 122.32 449.1 119.49 449.61L125.7 432.24H132.04L132.83 429.6H126.67L129.03 422.93H126.58L122.18 429.6L117.83 430.34V432.24H117.82ZM114.49 434.32C115.37 431.31 114.91 428.67 112.59 428.67C109.86 428.67 109.16 430.75 106.38 436.73V433.3C106.38 430.85 105.59 428.67 103.37 428.67C100.78 428.67 98.42 432.7 96.61 436.68H97.81C99.06 434.87 100.22 433.81 101.14 433.81C102.25 433.81 102.85 435.52 101.14 439.32L96.14 450.43C95.21 452.51 96.19 453.86 98.22 453.86C99.47 453.86 100.03 453.54 100.54 452.19L105.45 439.18C106.84 437.47 108.09 435.98 109.66 434.32H114.49ZM86.06 432.1C87.77 432.1 89.26 433.4 88.47 436.68L80.51 438.53C81.89 434.83 84.21 432.1 86.06 432.1ZM90.46 444.92H88.89C86.9 447.28 84.77 449.13 82.64 449.13C80.46 449.13 79.35 447.83 79.35 444.92C79.35 443.72 79.49 442.51 79.72 441.4L92.55 437.19C95.05 431.26 92.04 428.67 88.52 428.67C82.45 428.67 75.55 438.81 75.55 447.7C75.55 451.68 77.45 453.86 80.41 453.86C83.88 453.86 87.49 450.48 90.46 444.92ZM59.01 450.11C57.76 450.11 55.95 448.95 55.95 447.93C55.95 447.61 56.51 446.17 57.2 444.36L59.28 438.85C61.5 436.21 64.88 433.39 66.78 433.39C67.94 433.39 68.82 434.13 68.82 435.84C68.83 440.9 64.11 450.11 59.01 450.11ZM73.6 433.81C73.6 430.06 72.21 428.67 69.62 428.67C66.38 428.67 63.32 432.1 60.27 436.26L68 415.93L67.58 415.42L59.48 416.35V417.32L61.05 418.52C62.49 419.63 62.02 420.79 60.73 424.12L52.39 445.61C51.79 447.18 51.05 449.04 51.05 449.55C51.05 451.77 54.06 453.86 56.79 453.86C63.09 453.86 73.6 442.52 73.6 433.81ZM48.41 431.36C48.92 429.65 47.76 428.67 46.88 428.67C43.18 428.67 38.78 432 37.02 436.68H38.22C39.42 434.97 41.46 433.07 43.36 432.74L36.28 451.17C35.63 452.88 36.93 453.86 37.81 453.86C41.33 453.86 45.45 450.48 47.21 445.85H46C44.8 447.56 42.76 449.46 40.86 449.79L48.41 431.36ZM49.71 422.1C51.38 422.1 52.77 420.76 52.77 419.04C52.77 417.37 51.38 415.98 49.71 415.98C48 415.98 46.65 417.37 46.65 419.04C46.65 420.75 47.99 422.1 49.71 422.1ZM31.05 419.13H14.19L13.73 420.57C18.68 421.59 19.15 422.05 16.83 428.44L11.37 443.63C9.05 449.97 8.08 450.48 2.39 451.5L1.97 452.94H27.62L33.18 443.03H31.24C28.09 446.5 24.39 450.86 18.69 450.86C14.38 450.86 13.87 450.12 16.19 443.64L21.65 428.45C23.92 422.11 24.94 421.6 30.63 420.58L31.05 419.13Z" fill="black"/>
<path d="M2.54001 128.18H18.65L33.86 154.1L49.07 128.18H65.18V191.18H52.4V146.36L38.36 169.58H29.36L15.32 146.36V191.18H2.54001V128.18Z" fill="black"/>
<path d="M82.82 128.18H95.6V191.18H82.82V128.18Z" fill="black"/>
<path d="M113.33 128.18H129.71L157.88 173.27V128.18H170.66V191.18H154.28L126.11 145.91V191.18H113.33V128.18Z" fill="black"/>
<path d="M188.39 128.18H201.17V191.18H188.39V128.18Z" fill="black"/>
<path d="M222.5 173.9C226.28 178.76 231.32 181.64 236.45 181.64C241.49 181.64 244.55 178.94 244.55 174.35C244.55 163.1 215.75 165.62 215.75 144.65C215.75 134.66 223.94 126.38 235.91 126.38C245.36 126.38 252.65 130.61 257.96 137L248.6 145.37C244.91 140.6 240.77 137.54 236 137.54C231.59 137.54 228.71 140.42 228.71 144.11C228.71 155.36 257.51 152.75 257.51 174.08C257.33 185.78 248.15 192.98 236.63 192.98C226.01 192.98 218.81 189.11 213.23 182.45L222.5 173.9Z" fill="black"/>
<path d="M264.08 128.18H315.74V139.79H296.3V191.18H283.52V139.79H264.08V128.18V128.18Z" fill="black"/>
<path d="M327.08 128.18H363.8V139.07H339.86V153.65H360.2V164.54H339.86V180.29H363.8V191.18H327.08V128.18V128.18ZM328.16 110.63H341.3L351.47 122.78H339.77L328.16 110.63Z" fill="black"/>
<path d="M378.74 128.18H398C411.86 128.18 420.41 135.29 420.41 146.99C420.41 154.55 416.72 160.22 410.33 163.28L430.13 191.18H414.83L398.09 165.71H391.52V191.18H378.74V128.18ZM391.51 139.07V154.82H398.71C404.11 154.82 407.26 151.94 407.26 146.81C407.26 142.04 404.11 139.07 398.71 139.07H391.51Z" fill="black"/>
<path d="M438.13 128.18H474.85V139.07H450.91V153.65H471.25V164.54H450.91V180.29H474.85V191.18H438.13V128.18Z" fill="black"/>
<path d="M2.54001 220.18H27.29C47.27 220.18 60.77 234.67 60.77 251.68C60.77 268.69 47.27 283.18 27.29 283.18H2.54001V220.18ZM15.32 231.79V271.57H27.47C39.17 271.57 47.63 262.84 47.63 251.68C47.63 240.43 39.17 231.79 27.47 231.79H15.32V231.79Z" fill="black"/>
<path d="M73.19 220.18H109.91V231.07H85.97V245.65H106.31V256.54H85.97V272.29H109.91V283.18H73.19V220.18Z" fill="black"/>
<path d="M148.34 220.18H161.12V271.57H185.06V283.18H148.34V220.18Z" fill="black"/>
<path d="M182.45 246.1L190.55 220.18H203.51L193.07 246.1H182.45Z" fill="black"/>
<path d="M213.5 220.18H226.28V283.18H213.5V220.18Z" fill="black"/>
<path d="M244.01 220.18H260.39L288.56 265.27V220.18H301.34V283.18H284.96L256.79 237.91V283.18H244.01V220.18Z" fill="black"/>
<path d="M312.59 220.18H364.25V231.79H344.8V283.18H332.02V231.79H312.58V220.18H312.59Z" fill="black"/>
<path d="M375.58 220.18H412.3V231.07H388.36V245.65H408.7V256.54H388.36V272.29H412.3V283.18H375.58V220.18V220.18ZM388 214.78L398.17 202.63H411.31L399.61 214.78H388Z" fill="black"/>
<path d="M427.24 220.18H446.5C460.36 220.18 468.91 227.29 468.91 238.99C468.91 246.55 465.22 252.22 458.83 255.28L478.63 283.18H463.33L446.59 257.71H440.02V283.18H427.24V220.18V220.18ZM440.02 231.07V246.82H447.22C452.62 246.82 455.77 243.94 455.77 238.81C455.77 234.04 452.62 231.07 447.22 231.07H440.02Z" fill="black"/>
<path d="M486.64 220.18H499.42V283.18H486.64V220.18Z" fill="black"/>
<path d="M517.15 220.18H553.87V231.07H529.93V245.65H550.27V256.54H529.93V272.29H553.87V283.18H517.15V220.18Z" fill="black"/>
<path d="M605.62 220.18H618.4V258.52C618.4 275.08 608.68 284.98 592.84 284.98C577.09 284.98 567.37 275.08 567.37 258.52V220.18H580.15V259.6C580.15 268.06 584.92 273.01 592.93 273.01C600.76 273.01 605.62 268.06 605.62 259.6V220.18Z" fill="black"/>
<path d="M634.33 220.18H653.59C667.45 220.18 676 227.29 676 238.99C676 246.55 672.31 252.22 665.92 255.28L685.72 283.18H670.42L653.68 257.71H647.11V283.18H634.33V220.18V220.18ZM647.11 231.07V246.82H654.31C659.71 246.82 662.86 243.94 662.86 238.81C662.86 234.04 659.71 231.07 654.31 231.07H647.11Z" fill="black"/>
<path d="M2.54001 312.18H39.26V323.07H15.32V337.65H35.66V348.54H15.32V364.29H39.26V375.18H2.54001V312.18Z" fill="black"/>
<path d="M49.07 312.18H100.73V323.79H81.29V375.18H68.51V323.79H49.07V312.18Z" fill="black"/>
<path d="M135.56 312.18H160.31C180.29 312.18 193.79 326.67 193.79 343.68C193.79 360.69 180.29 375.18 160.31 375.18H135.56V312.18V312.18ZM148.34 323.79V363.57H160.49C172.19 363.57 180.65 354.84 180.65 343.68C180.65 332.43 172.19 323.79 160.49 323.79H148.34V323.79Z" fill="black"/>
<path d="M206.21 312.18H242.93V323.07H218.99V337.65H239.33V348.54H218.99V364.29H242.93V375.18H206.21V312.18V312.18Z" fill="black"/>
<path d="M261.47 357.89C265.25 362.75 270.29 365.63 275.42 365.63C280.46 365.63 283.52 362.93 283.52 358.34C283.52 347.09 254.72 349.61 254.72 328.64C254.72 318.65 262.91 310.37 274.88 310.37C284.33 310.37 291.62 314.6 296.93 320.99L287.57 329.36C283.88 324.59 279.74 321.53 274.97 321.53C270.56 321.53 267.68 324.41 267.68 328.1C267.68 339.35 296.48 336.74 296.48 358.07C296.3 369.77 287.12 376.97 275.6 376.97C264.98 376.97 257.78 373.1 252.2 366.44L261.47 357.89Z" fill="black"/>
<path d="M394.93 343.68C394.93 361.68 381.34 376.98 361.54 376.98C341.65 376.98 328.06 361.68 328.06 343.68C328.06 325.68 341.65 310.38 361.54 310.38C381.34 310.38 394.93 325.68 394.93 343.68ZM381.79 343.68C381.79 331.62 373.33 322.35 361.54 322.35C349.66 322.35 341.2 331.62 341.2 343.68C341.2 355.74 349.66 365.01 361.54 365.01C373.33 365 381.79 355.73 381.79 343.68Z" fill="black"/>
<path d="M444.43 312.18H457.21V350.52C457.21 367.08 447.49 376.98 431.65 376.98C415.9 376.98 406.18 367.08 406.18 350.52V312.18H418.96V351.6C418.96 360.06 423.73 365.01 431.74 365.01C439.57 365.01 444.43 360.06 444.43 351.6V312.18Z" fill="black"/>
<path d="M467.38 312.18H519.04V323.79H499.6V375.18H486.82V323.79H467.38V312.18Z" fill="black"/>
<path d="M530.38 312.18H549.64C563.5 312.18 572.05 319.29 572.05 330.99C572.05 338.55 568.36 344.22 561.97 347.28L581.77 375.18H566.47L549.73 349.71H543.16V375.18H530.38V312.18V312.18ZM543.16 323.07V338.82H550.36C555.76 338.82 558.91 335.94 558.91 330.81C558.91 326.04 555.76 323.07 550.36 323.07H543.16Z" fill="black"/>
<path d="M589.78 312.18H626.5V323.07H602.56V337.65H622.9V348.54H602.56V364.29H626.5V375.18H589.78V312.18Z" fill="black"/>
<path d="M658.27 338.1V349.17H633.97V338.1H658.27Z" fill="black"/>
<path d="M668.53 312.18H684.64L699.85 338.1L715.06 312.18H731.17V375.18H718.39V330.36L704.35 353.58H695.35L681.31 330.36V375.18H668.53V312.18V312.18Z" fill="black"/>
<path d="M748.81 312.18H785.53V323.07H761.59V337.65H781.93V348.54H761.59V364.29H785.53V375.18H748.81V312.18Z" fill="black"/>
<path d="M800.47 312.18H819.73C833.59 312.18 842.14 319.29 842.14 330.99C842.14 338.55 838.45 344.22 832.06 347.28L851.86 375.18H836.56L819.82 349.71H813.25V375.18H800.47V312.18V312.18ZM813.25 323.07V338.82H820.45C825.85 338.82 829 335.94 829 330.81C829 326.04 825.85 323.07 820.45 323.07H813.25Z" fill="black"/>
<path d="M96.13 74.76C97.03 73.86 97.94 72.89 98.84 71.92H98.82C100.5 70.01 102.15 68.2 104.11 66.53C104.7 66 105.28 65.53 105.83 65.15C105.99 64.99 105.99 64.67 106.15 64.52C105.36 64.84 104.88 65.47 104.09 65.79C103.93 65.79 103.77 65.63 103.93 65.47C104.49 65.05 105.06 64.62 105.62 64.2C105.59 64.2 105.55 64.2 105.51 64.2C105.35 64.2 105.35 64.04 105.35 63.88C103.29 63.56 101.7 64.99 100.28 66.26C99.96 66.42 99.65 66.1 99.49 66.1C97.11 66.89 95.37 68.95 92.99 69.9C92.99 69.74 92.99 69.74 92.99 69.58C92.04 69.9 91.12 70.47 90.14 70.69C88.71 71.01 87.45 70.85 86.18 70.85C84.26 71.04 82.34 71.47 80.42 71.88C80.36 71.89 80.31 71.91 80.25 71.92C79.22 72.2 78.25 72.59 77.3 73.11C77.26 73.13 77.23 73.15 77.19 73.17C77.11 73.27 77.03 73.36 76.96 73.44C76.62 73.81 76.33 74.16 75.87 74.39C74.9 74.89 74.1 75.75 73.24 76.45C73.18 76.5 73.08 76.52 72.99 76.53C72.14 77.35 71.3 78.17 70.44 78.97C70.38 79.03 70.13 79.06 69.96 79.03C69.96 79.02 69.97 79.02 69.97 79.02C70 78.97 70.03 78.92 70.06 78.87C70.19 78.65 70.33 78.42 70.47 78.2C70.62 77.95 70.78 77.71 70.94 77.46C71.16 77.13 71.38 76.81 71.61 76.5C71.67 76.42 71.65 76.35 71.6 76.29C71.55 76.24 71.47 76.21 71.38 76.21C72.17 75.44 73.11 74.79 74.04 74.22C74.04 74.21 74.04 74.2 74.04 74.19C73.93 74.23 73.78 74.14 73.86 74.03C73.96 73.89 74.04 73.74 74.13 73.6C74.15 73.55 74.16 73.51 74.18 73.46C74.14 73.42 74.1 73.38 74.06 73.33C73.8 73.5 73.53 73.65 73.32 73.85C72.94 74.19 72.64 74.89 72.07 74.88C72.03 74.88 71.92 74.87 71.83 74.85C71.76 74.84 71.7 74.82 71.66 74.79C71.67 74.78 71.67 74.77 71.68 74.75C71.69 74.74 71.7 74.72 71.7 74.71C71.71 74.7 71.72 74.68 71.72 74.67C71.74 74.62 71.77 74.58 71.8 74.53C71.83 74.48 71.85 74.44 71.88 74.39C71.9 74.35 71.92 74.32 71.94 74.28C71.98 74.21 72.01 74.15 72.05 74.08C72.08 74.03 72.11 73.98 72.13 73.94C72.2 73.82 72.27 73.71 72.33 73.59C72.36 73.53 72.4 73.48 72.43 73.42C72.49 73.32 72.54 73.23 72.6 73.13C72.68 73 72.6 72.89 72.48 72.85C72.77 72.47 73.13 72.15 73.57 71.9H73.52C74.13 71.59 74.73 71.22 75.34 70.88C75.43 70.8 75.51 70.73 75.6 70.65C74.7 70.95 73.88 71.36 73.08 71.89C73.08 71.89 72.87 71.98 72.81 72.03C72.81 72.03 72.63 72.1 72.41 71.89C72.39 71.86 72.37 71.83 72.37 71.77C72.53 71.45 73 71.29 73.32 70.98C73.48 70.98 73.64 70.98 73.64 71.14C78.71 67.18 85.68 68.13 91.55 66.07C92.03 65.75 92.5 65.44 92.98 65.12C93.77 64.8 94.41 64.01 95.36 63.54C96.63 62.59 97.58 61.48 98.05 59.9C98.05 59.74 97.89 59.58 97.89 59.58C95.83 61.8 93.45 63.54 90.92 64.81C87.59 66.55 83.95 66.24 80.46 66.71C80.62 66.39 80.94 66.39 81.25 66.39C81.25 65.91 81.57 65.76 81.88 65.44C82.04 65.44 82.2 65.44 82.36 65.44C82.52 65.44 82.52 65.12 82.68 65.12C83 65.12 83.47 64.96 83.31 64.96C82.83 64.33 81.88 65.44 81.09 64.96C81.41 64.64 81.25 64.17 81.57 64.01C81.73 64.01 82.05 64.01 82.2 64.01C82.2 63.69 82.52 63.38 82.52 63.38C84.9 61.95 87.12 60.84 89.33 59.58C88.85 59.58 88.54 60.06 88.06 59.74C88.38 59.74 88.06 59.26 88.38 59.26C90.12 58.78 91.55 57.83 93.29 57.2C92.66 57.2 92.18 57.68 91.55 57.2C91.87 57.04 92.03 56.72 92.5 56.72C92.5 56.56 92.5 56.4 92.5 56.24C92.5 56.08 92.66 56.08 92.82 56.08C92.66 56.08 92.5 55.92 92.5 55.92C92.66 55.6 93.13 55.76 93.45 55.44C93.29 55.44 92.97 55.44 92.97 55.28C93.45 54.65 94.24 54.49 95.03 54.33C94.87 54.01 94.4 54.33 94.4 54.01C94.4 53.85 94.56 53.85 94.72 53.85C94.56 53.85 94.56 53.85 94.4 53.85C94.08 53.69 94.24 53.37 94.24 53.22C95.19 52.11 95.19 50.68 95.67 49.42C95.51 49.42 95.35 49.42 95.35 49.26C93.77 51 91.23 51.64 88.85 52.27C88.69 52.27 88.22 52.27 88.06 52.27C87.27 52.59 86.16 52.59 85.37 52.11C84.74 51.79 84.42 51.32 83.79 50.84C82.52 50.05 81.25 49.41 79.83 48.94C75.87 47.67 71.75 47.04 67.63 47.2C69.37 46.25 71.3 46.17 73.18 45.62C75.87 44.83 78.41 43.88 81.26 44.04C80.78 43.88 80.15 44.04 79.68 44.04C77.46 43.88 75.24 44.52 72.87 44.99C71.29 45.31 69.86 45.94 68.27 46.26C67.32 46.58 66.84 47.53 65.73 47.37C65.73 47.37 65.73 47.05 65.73 46.89C67.31 44.99 69.22 43.09 71.75 42.93C74.6 42.45 77.3 42.93 80.15 43.25C82.21 43.41 84.11 43.88 86.17 44.36C86.96 44.36 87.12 45.63 87.76 45.79C88.71 46.11 89.66 45.79 90.61 46.42C90.61 46.1 90.45 45.79 90.61 45.47C91.24 44.84 92.04 45.63 92.67 45.31C93.94 44.52 91.56 43.09 90.93 41.98C90.93 41.82 91.09 41.66 91.09 41.66C92.36 42.77 93.31 44.04 94.89 44.83C95.68 45.15 97.58 45.62 97.27 44.67C96.48 42.93 94.89 41.5 93.63 39.92C93.63 39.76 93.63 39.44 93.63 39.29C93.31 39.29 93.31 39.13 93.15 38.97C93.15 38.81 93.15 38.49 93.15 38.34C92.52 38.02 92.67 37.39 92.36 36.91C91.88 36.12 92.2 35.01 91.88 34.06C91.56 33.11 91.4 32.32 91.25 31.37C90.77 28.68 90.14 26.3 89.82 23.76C89.5 20.75 91.56 18.37 92.99 15.68C94.1 13.78 95.37 11.88 97.43 10.61C97.91 8.71001 99.17 7.12001 100.44 5.54001C101.71 3.99001 103.81 3.05001 105.33 2.37001C107.54 1.38001 109.54 0.76001 109.54 0.76001H0.779999V84.62H77.8C80.82 82.45 83.83 81.42 88.04 79.34C90.04 78.39 94.59 76.3 96.13 74.76ZM71.76 63.41C71.44 63.41 70.81 63.57 70.97 63.25C71.13 62.46 72.24 62.46 72.87 62.14C73.19 61.98 73.66 61.66 73.98 61.82C74.3 62.3 74.77 62.14 75.09 62.45C74.13 63.41 72.87 62.93 71.76 63.41ZM47.51 59.92C47.51 59.92 47.35 59.76 47.35 59.6C49.41 56.91 50.99 54.37 52.42 51.52C54.48 50.41 56.19 48.8 57.81 47.08C60.5 44.23 63.36 41.69 66.68 40.11C67.95 39.63 69.53 39.79 70.8 40.27C70.32 40.9 69.53 40.75 68.9 41.22C68.74 41.22 68.58 41.22 68.42 41.06C68.58 40.9 68.58 40.74 68.58 40.58C67 42.32 64.78 43.12 63.51 45.18C62.56 46.76 61.93 48.83 59.87 49.3C59.24 49.46 60.03 48.82 59.71 48.98C54.8 51.99 51.31 55.64 47.51 59.92ZM60.66 49.46C60.5 49.78 60.33 49.81 60.18 50.09C60.02 50.41 59.86 50.57 59.55 50.72C59.39 50.72 59.23 50.72 59.23 50.56C59.39 49.93 59.86 49.29 60.5 49.13C60.66 49.14 60.66 49.3 60.66 49.46ZM68.02 73.2C67.95 73.37 67.79 73.52 67.63 73.66C67.83 73.7 67.97 73.79 67.84 73.91C67.47 74.25 67.12 74.59 66.64 74.75C66.61 74.76 66.51 74.78 66.4 74.78C66.21 74.97 66.01 75.15 65.81 75.33C65.62 75.5 64.75 75.38 65.02 75.14C65.42 74.78 65.79 74.4 66.19 74.03C66.41 73.83 66.65 73.63 66.85 73.4C66.96 73.27 67.05 73.15 67.19 73.05C67.31 72.97 68.15 72.89 68.02 73.2ZM65.18 71.89C65.17 71.9 65.15 71.91 65.14 71.92C64.55 72.34 63.96 72.76 63.33 73.13C62.65 73.52 61.94 73.82 61.24 74.16C61.23 74.15 61.23 74.13 61.22 74.12C61.17 74.05 61.06 74 60.95 74.06C60.35 74.38 59.84 74.81 59.35 75.27C59.28 75.34 59.2 75.41 59.13 75.48L59.12 75.49L59.11 75.5C59.03 75.57 58.96 75.65 58.88 75.72C58.87 75.73 58.86 75.74 58.85 75.75L58.84 75.76C58.73 75.87 58.62 75.99 58.5 76.13C58.42 76.22 58.39 76.28 58.29 76.35C58.19 76.42 57.92 76.41 57.94 76.23C57.94 76.22 57.94 76.21 57.94 76.2C57.85 76.25 57.75 76.3 57.66 76.34C57.57 76.38 57.49 76.43 57.41 76.48C57.38 76.47 57.34 76.46 57.3 76.46C57.26 76.46 57.22 76.47 57.19 76.5C57 76.65 56.8 76.81 56.62 76.98C56.29 77.28 55.98 77.61 55.7 77.96C55.69 77.96 55.69 77.97 55.69 77.97C55.68 77.98 55.67 78 55.66 78.01C55.64 78.03 55.63 78.05 55.61 78.07C55.59 78.09 55.58 78.11 55.56 78.14C55.56 78.15 55.55 78.15 55.54 78.16C55.5 78.21 55.47 78.27 55.43 78.32C55.43 78.32 55.43 78.33 55.42 78.33C55.39 78.36 55.35 78.38 55.29 78.39C55.27 78.36 55.25 78.33 55.23 78.3C55.21 78.28 55.2 78.25 55.19 78.22C55.14 78.14 55.1 78.05 55.05 77.97V77.96C55.04 77.93 55.02 77.91 55.01 77.88C55.18 77.7 55.35 77.5 55.51 77.31C55.52 77.3 55.53 77.28 55.54 77.27C55.6 77.2 55.65 77.13 55.7 77.07C55.79 76.96 55.88 76.84 55.97 76.73C56 76.69 56.03 76.65 56.07 76.6C56.24 76.37 56.41 76.15 56.57 75.93C56.57 75.92 56.58 75.92 56.58 75.91C56.6 75.88 56.63 75.84 56.65 75.81C56.73 75.7 56.8 75.58 56.87 75.47C56.93 75.37 56.99 75.26 57.04 75.15C57.04 75.14 57.05 75.13 57.05 75.13C57.06 75.12 57.06 75.11 57.07 75.1C57.08 75.08 57.09 75.06 57.1 75.04C57.16 74.92 57.21 74.8 57.25 74.67C57.25 74.66 57.26 74.64 57.26 74.63C57.27 74.6 57.28 74.56 57.3 74.53C57.32 74.47 57.33 74.41 57.35 74.36C57.35 74.35 57.36 74.33 57.36 74.32C57.38 74.24 57.4 74.17 57.42 74.09C57.43 74.05 57.42 74.01 57.4 73.98C57.57 73.68 57.78 73.4 58.03 73.12C58.01 73.13 57.98 73.15 57.96 73.16C57.73 73.31 57.58 73.51 57.37 73.67C57.2 73.8 56.88 73.59 57.08 73.43C57.22 73.33 57.32 73.21 57.44 73.1C57.45 73.09 57.45 73.08 57.46 73.07C57.72 72.81 57.97 72.48 58.27 72.27C58.45 72.14 58.61 72.03 58.76 71.9C58.78 71.88 58.81 71.86 58.83 71.84C58.94 71.69 59.06 71.56 59.18 71.44C59.19 71.43 59.19 71.43 59.2 71.42C60.72 69.96 63.27 70.02 65.27 69.09C66.06 68.77 67.01 69.25 67.81 69.09C68.29 69.09 68.76 69.09 69.24 69.41C67.8 70.2 66.48 71.08 65.18 71.89ZM68.43 60.87C68.27 60.71 68.91 60.87 69.06 60.55C68.58 60.55 68.27 60.55 67.79 60.55C67.63 60.55 67.63 60.39 67.63 60.23C66.84 60.39 65.89 60.71 65.09 60.86C63.98 61.18 63.03 61.97 61.76 62.29C60.02 62.92 58.59 64.35 56.69 64.98C56.53 64.98 56.53 64.82 56.53 64.66C56.69 64.18 57.32 64.03 57.64 63.55C57.64 63.39 57.64 63.23 57.48 63.23C58.75 61.49 60.49 60.54 62.08 59.11C62.08 58.95 62.08 58.79 62.08 58.63C62.56 58 63.35 57.68 63.66 56.89C63.82 56.41 64.45 55.78 65.24 55.46C65.08 55.3 64.76 55.3 64.76 54.98C64.13 54.98 63.49 55.3 62.86 54.82C63.16 54.52 63.49 54.36 63.85 54.26C63.71 54.23 63.59 54.16 63.49 54.03C63.33 53.71 63.8 53.36 64.28 53.24C64.91 53.08 65.71 53.08 66.18 52.61C65.07 52.45 63.8 52.93 62.69 52.29C63.48 50.23 64.75 48.49 66.65 47.54C66.81 47.54 67.13 47.54 67.13 47.7C67.13 48.49 66.65 49.13 65.86 49.28C67.13 49.6 68.4 49.6 69.66 50.23C69.5 50.55 69.18 50.39 69.03 50.39C69.82 50.87 70.77 50.55 71.57 51.18C71.09 51.66 70.62 51.18 70.14 51.18C75.05 52.61 80.28 53.72 84.4 56.88C80.91 58.62 77.27 59.42 73.47 60.21C72.99 60.21 72.68 60.21 72.2 60.05C72.2 60.21 72.2 60.53 72.04 60.53C71.41 60.53 70.93 60.53 70.46 60.85C69.86 61.19 68.9 61.34 68.43 60.87Z" fill="#000091"/>
<path d="M231.41 0.780029H141.2C141.2 0.780029 141.37 0.810031 142.06 1.18003C142.79 1.57003 143.74 2.08003 144.34 2.39003C145.5 3.00003 146.63 3.76003 147.36 4.93003C147.68 5.41003 148.15 6.36003 147.84 6.99003C147.52 7.78003 147.36 9.05003 146.57 9.37003C145.62 9.85003 144.35 9.85003 143.24 9.69003C142.61 9.69003 141.97 9.53003 141.34 9.37003C143.72 10.32 145.94 11.43 147.52 13.65C147.68 13.97 148.31 14.13 148.95 14.13C149.11 14.13 149.11 14.45 149.11 14.61C148.79 14.93 148.48 15.09 148.63 15.56C148.79 15.56 148.95 15.56 149.11 15.56C149.9 15.24 149.74 13.66 150.85 14.13C151.64 14.61 151.96 15.71 151.48 16.51C150.85 17.14 150.21 17.62 149.58 18.09C149.42 18.41 149.42 18.88 149.58 19.2C150.06 19.83 150.21 20.47 150.37 21.1C150.85 22.21 151 23.48 151.48 24.59C152.11 26.97 152.75 29.34 152.59 31.72C152.59 32.99 151.96 34.1 152.43 35.36C152.75 36.63 153.54 37.58 154.17 38.69C154.8 39.64 155.44 40.27 155.91 41.23C156.86 42.81 158.6 44.4 157.81 46.3C157.33 47.41 155.59 47.25 154.48 47.88C153.53 48.67 154.32 49.94 154.8 50.73C155.59 52.16 153.85 53.11 152.74 53.58C153.06 54.06 153.69 53.9 153.85 54.21C154.01 55 154.8 55.48 154.33 56.27C153.7 57.22 151.79 57.7 152.75 59.12C153.38 60.23 152.97 61.46 152.59 62.61C152.11 64.04 150.85 64.67 149.74 64.99C148.79 65.31 147.68 65.31 146.73 65.15C146.41 64.99 146.1 64.83 145.78 64.83C143.09 64.51 140.39 63.72 137.7 63.72C136.91 63.88 136.12 64.04 135.48 64.35C134.76 64.88 134.13 65.45 133.56 66.05C133.55 66.06 133.55 66.06 133.54 66.07C133.42 66.2 133.31 66.32 133.19 66.45C133.12 66.53 133.05 66.61 132.99 66.69C132.94 66.74 132.9 66.8 132.86 66.85C132.4 67.43 131.98 68.04 131.61 68.68C131.59 68.72 131.56 68.76 131.54 68.8C131.5 68.87 131.46 68.95 131.42 69.02C130.9 69.98 130.51 70.97 130.22 71.93C129.14 75.56 129.61 78.67 130.37 79.43C130.58 79.64 135.6 81.19 139.1 82.75C140.74 83.48 141.89 84.04 142.84 84.64H231.43V0.780029H231.41Z" fill="#E1000F"/>
<path d="M146.56 31.38C147.19 31.54 148.14 31.54 148.14 31.86C147.82 33.13 145.92 33.44 144.97 34.71H144.49C144.01 35.03 144.17 35.82 143.7 35.82C143.22 35.66 142.75 35.82 142.27 35.98C142.9 36.61 143.7 37.09 144.65 36.93C144.81 36.93 145.13 37.25 145.13 37.56C145.13 37.56 145.29 37.56 145.45 37.4C145.61 37.4 145.77 37.4 145.77 37.56V38.19C145.29 38.82 144.5 38.51 143.87 38.67C145.14 38.99 146.41 38.99 147.51 38.67C148.46 38.35 147.51 36.77 148.14 35.98C147.82 35.98 148.14 35.5 147.82 35.5C148.14 35.18 148.45 34.71 148.77 34.55C149.09 34.55 149.56 34.39 149.72 34.07C149.72 33.75 149.09 33.6 149.24 33.28C150.19 32.65 150.98 31.7 150.67 30.74C150.51 30.26 149.24 30.26 148.45 29.95C147.66 29.63 146.71 29.95 145.76 30.11C144.97 30.11 144.17 30.59 143.38 30.74C142.27 31.06 141.32 31.69 140.37 32.32C141.48 31.84 142.59 31.69 143.86 31.37C144.82 31.38 145.63 31.14 146.56 31.38Z" fill="#9D9D9C"/>
</svg>
